<?xml version="1.0" standalone="no"?>
<!DOCTYPE svg PUBLIC "-//W3C//DTD SVG 20010904//EN"
 "http://www.w3.org/TR/2001/REC-SVG-20010904/DTD/svg10.dtd">
<svg version="1.0" xmlns="http://www.w3.org/2000/svg"
 width="242.000000pt" height="208.000000pt" viewBox="0 0 242.000000 208.000000"
 preserveAspectRatio="xMidYMid meet">

<g transform="translate(0.000000,208.000000) scale(0.100000,-0.100000)"
fill="#000000" stroke="none">
<path d="M861 2015 c-40 -34 -56 -84 -41 -130 25 -75 113 -108 181 -68 31 18
59 67 59 103 0 98 -125 157 -199 95z"/>
<path d="M1104 2017 c-2 -7 -3 -56 -2 -108 l3 -94 105 0 105 0 0 105 0 105
-103 3 c-79 2 -104 0 -108 -11z m206 -97 l0 -100 -100 0 -100 0 0 100 0 100
100 0 100 0 0 -100z"/>
<path d="M1374 2017 c-3 -8 -3 -56 -2 -108 l3 -94 108 -3 107 -3 0 111 0 110
-105 0 c-79 0 -107 -3 -111 -13z m206 -97 l0 -100 -100 0 -100 0 0 100 0 100
100 0 100 0 0 -100z"/>
<path d="M832 1647 l-2 -108 108 3 107 3 3 94 c1 52 -1 98 -5 102 -4 5 -7 -37
-5 -91 l3 -100 -100 0 -100 0 -4 103 -3 102 -2 -108z"/>
<path d="M1100 1645 l0 -105 110 0 110 0 0 105 c0 58 -3 105 -7 105 -5 0 -7
-45 -5 -100 l3 -100 -101 0 -101 0 3 100 c2 55 0 100 -4 100 -5 0 -8 -47 -8
-105z"/>
<path d="M830 1370 l0 -111 108 3 107 3 0 105 0 105 -107 3 -108 3 0 -111z
m208 3 l-3 -98 -97 -3 -98 -3 0 101 0 100 100 0 101 0 -3 -97z"/>
<path d="M1102 1373 l3 -108 105 0 105 0 3 108 3 107 -111 0 -111 0 3 -107z
m208 -3 l0 -100 -100 0 -100 0 0 100 0 100 100 0 100 0 0 -100z"/>
<path d="M1374 1467 c-3 -8 -3 -56 -2 -108 l3 -94 108 -3 107 -3 0 111 0 110
-105 0 c-79 0 -107 -3 -111 -13z m206 -97 l0 -101 -97 3 -98 3 -3 98 -3 97
101 0 100 0 0 -100z"/>
<path d="M837 1203 c-4 -3 -7 -53 -7 -110 l0 -104 108 3 107 3 3 94 c2 60 -1
98 -9 107 -8 10 -37 14 -104 14 -50 0 -95 -3 -98 -7z m201 -105 l3 -98 -101 0
-100 0 0 100 0 101 98 -3 97 -3 3 -97z"/>
<path d="M1107 1204 c-4 -4 -7 -54 -7 -111 l0 -103 110 0 111 0 -3 108 -3 107
-101 3 c-55 1 -103 0 -107 -4z m203 -104 l0 -100 -100 0 -100 0 0 100 0 100
100 0 100 0 0 -100z"/>
<path d="M390 710 l0 -110 25 0 25 0 0 110 0 110 -25 0 -25 0 0 -110z"/>
<path d="M500 710 c0 -105 1 -110 21 -110 20 0 21 4 18 79 -2 44 -1 77 3 75 4
-3 25 -38 48 -79 39 -71 43 -75 76 -75 l34 0 0 110 0 110 -26 0 -27 0 6 -80
c3 -44 2 -78 -3 -75 -4 2 -27 38 -51 80 -37 65 -46 75 -71 75 l-28 0 0 -110z"/>
<path d="M772 813 c-7 -3 -17 -16 -22 -29 -13 -34 5 -68 46 -88 67 -31 54 -78
-16 -59 -38 10 -40 9 -40 -13 0 -18 7 -23 38 -29 106 -18 153 79 61 125 -22
12 -43 28 -46 36 -8 22 16 35 51 28 31 -7 55 14 33 28 -13 9 -85 9 -105 1z"/>
<path d="M910 800 c0 -16 7 -20 30 -20 l30 0 0 -90 c0 -89 0 -90 25 -90 25 0
25 1 25 90 l0 90 30 0 c23 0 30 4 30 20 0 18 -7 20 -85 20 -78 0 -85 -2 -85
-20z"/>
<path d="M1120 710 c0 -103 1 -110 20 -110 19 0 20 7 20 110 0 103 -1 110 -20
110 -19 0 -20 -7 -20 -110z"/>
<path d="M1200 800 c0 -16 7 -20 30 -20 l30 0 0 -90 c0 -89 0 -90 25 -90 25 0
25 1 25 90 l0 90 30 0 c23 0 30 4 30 20 0 18 -7 20 -85 20 -78 0 -85 -2 -85
-20z"/>
<path d="M1410 732 c0 -99 12 -126 60 -137 38 -8 97 11 110 35 6 10 10 57 10
104 0 78 -2 86 -19 86 -17 0 -19 -9 -22 -85 -4 -88 -12 -104 -51 -105 -36 0
-48 28 -48 111 0 72 -2 79 -20 79 -18 0 -20 -7 -20 -88z"/>
<path d="M1630 800 c0 -16 7 -20 30 -20 l30 0 0 -90 c0 -89 0 -90 25 -90 25 0
25 1 25 90 l0 90 30 0 c23 0 30 4 30 20 0 18 -7 20 -85 20 -78 0 -85 -2 -85
-20z"/>
<path d="M1855 795 c-21 -20 -25 -34 -25 -82 0 -67 15 -94 59 -113 41 -17 92
-6 122 26 20 21 24 36 24 86 0 53 -3 62 -28 84 -40 34 -118 34 -152 -1z m115
-25 c41 -41 15 -140 -37 -140 -58 1 -80 93 -36 143 21 23 48 22 73 -3z"/>
<path d="M550 435 c0 -108 1 -115 20 -115 17 0 20 7 20 45 l0 45 40 0 c33 0
40 3 40 20 0 17 -7 20 -40 20 -38 0 -40 2 -40 30 0 29 2 30 45 30 38 0 45 3
45 20 0 18 -7 20 -65 20 l-65 0 0 -115z"/>
<path d="M727 543 c-4 -3 -7 -55 -7 -115 l0 -108 65 0 c58 0 65 2 65 20 0 17
-7 20 -40 20 -38 0 -40 2 -40 30 0 28 2 30 40 30 33 0 40 3 40 20 0 17 -7 20
-40 20 -36 0 -40 3 -40 25 0 23 4 25 40 25 33 0 40 3 40 20 0 18 -7 20 -58 20
-32 0 -62 -3 -65 -7z"/>
<path d="M900 436 l0 -116 48 0 c56 0 112 26 130 60 20 38 9 107 -22 138 -21
21 -37 27 -91 30 l-65 4 0 -116z m118 58 c49 -34 17 -134 -43 -134 -24 0 -25
2 -25 75 0 71 1 75 23 75 12 0 33 -7 45 -16z"/>
<path d="M1140 435 l0 -115 65 0 c58 0 65 2 65 20 0 17 -7 20 -40 20 -38 0
-40 2 -40 30 0 28 3 30 35 30 28 0 35 4 35 20 0 16 -7 20 -35 20 -31 0 -35 3
-35 25 0 23 4 25 40 25 33 0 40 3 40 20 0 18 -7 20 -65 20 l-65 0 0 -115z"/>
<path d="M1320 436 l0 -116 25 0 c23 0 25 4 25 45 0 25 5 45 10 45 6 0 23 -20
38 -45 l27 -45 55 2 c49 3 55 6 60 28 5 21 12 25 48 28 40 3 43 1 53 -27 8
-23 17 -31 34 -31 l24 0 -29 83 c-53 153 -49 147 -80 147 -26 0 -30 -6 -66
-110 -22 -60 -42 -110 -45 -110 -7 0 -59 76 -59 85 0 4 7 13 15 21 20 20 19
78 -1 95 -9 7 -42 15 -75 17 l-59 4 0 -116z m99 60 c17 -20 3 -46 -25 -46 -20
0 -24 5 -24 30 0 23 5 30 19 30 10 0 24 -6 30 -14z m209 -35 c16 -52 16 -51
-19 -51 -26 0 -30 3 -24 18 3 9 9 29 12 45 8 38 18 34 31 -12z"/>
<path d="M1750 435 l0 -115 70 0 c63 0 70 2 70 20 0 17 -7 20 -45 20 l-45 0 0
95 c0 95 0 95 -25 95 l-25 0 0 -115z"/>
<path d="M520 136 c0 -102 18 -116 22 -18 l3 67 23 -68 c13 -37 29 -67 36 -67
7 0 21 27 31 60 25 84 38 86 33 6 -2 -40 1 -66 7 -66 6 0 9 33 7 86 -2 54 -7
84 -14 82 -6 -2 -22 -34 -36 -71 -13 -37 -26 -66 -28 -65 -2 2 -13 33 -26 68
-15 42 -29 66 -41 68 -15 3 -17 -6 -17 -82z"/>
<path d="M720 205 c0 -8 5 -15 10 -15 6 0 10 7 10 15 0 8 -4 15 -10 15 -5 0
-10 -7 -10 -15z"/>
<path d="M1253 196 c-23 -20 -28 -32 -27 -66 2 -55 30 -85 83 -85 48 0 71 19
71 56 0 26 -3 29 -35 29 -19 0 -35 -4 -35 -10 0 -5 11 -10 25 -10 16 0 25 -6
25 -15 0 -9 -11 -21 -25 -27 -53 -24 -106 32 -84 89 6 15 16 31 22 35 20 13
60 9 79 -9 26 -23 34 -9 9 16 -28 28 -73 27 -108 -3z"/>
<path d="M1760 205 c0 -8 5 -15 10 -15 6 0 10 7 10 15 0 8 -4 15 -10 15 -5 0
-10 -7 -10 -15z"/>
<path d="M720 110 c0 -33 4 -60 10 -60 6 0 10 27 10 60 0 33 -4 60 -10 60 -6
0 -10 -27 -10 -60z"/>
<path d="M770 108 c0 -32 4 -58 10 -58 6 0 10 18 10 39 0 43 22 74 45 65 10
-4 15 -21 15 -55 0 -28 5 -49 10 -49 7 0 10 22 8 58 l-3 57 -47 1 -48 1 0 -59z"/>
<path d="M923 163 c-7 -2 -13 -12 -13 -20 0 -14 3 -13 21 3 15 14 24 16 37 7
25 -15 18 -26 -25 -38 -27 -7 -39 -17 -41 -32 -4 -28 28 -46 60 -34 13 4 29 6
36 4 15 -6 17 69 2 98 -10 18 -48 24 -77 12z m67 -61 c0 -19 -28 -44 -46 -40
-27 5 -24 31 6 39 35 10 40 10 40 1z"/>
<path d="M1047 163 c-4 -3 -7 -17 -7 -29 0 -18 8 -25 32 -32 17 -4 33 -13 36
-20 6 -18 -28 -27 -50 -13 -30 19 -33 5 -3 -15 21 -13 31 -15 50 -6 40 18 32
50 -16 70 -36 15 -39 19 -26 31 12 9 21 10 36 2 28 -15 36 -14 21 4 -13 15
-61 21 -73 8z"/>
<path d="M1425 154 c-25 -26 -16 -85 16 -103 24 -13 29 -13 54 3 32 21 25 35
-9 16 -28 -15 -56 -8 -56 15 0 11 11 15 45 15 37 0 45 3 45 18 0 44 -63 67
-95 36z m56 -4 c30 -16 23 -30 -16 -30 -37 0 -43 8 -23 28 15 15 15 15 39 2z"/>
<path d="M1550 108 c0 -32 4 -58 10 -58 6 0 10 21 10 46 0 37 4 47 20 51 31 8
24 22 -10 20 -30 -2 -30 -3 -30 -59z"/>
<path d="M1637 163 c-4 -3 -7 -13 -7 -21 0 -12 4 -11 21 4 15 13 24 15 36 8
25 -15 17 -27 -24 -39 -27 -7 -39 -17 -41 -32 -4 -28 28 -46 60 -34 13 4 29 6
35 4 10 -4 11 8 7 44 -3 26 -7 54 -10 61 -4 12 -66 17 -77 5z m62 -84 c-6 -13
-18 -19 -32 -17 -30 4 -28 31 3 38 34 9 42 3 29 -21z"/>
<path d="M1760 110 c0 -33 4 -60 10 -60 6 0 10 27 10 60 0 33 -4 60 -10 60 -6
0 -10 -27 -10 -60z"/>
<path d="M1817 163 c-18 -17 -5 -45 27 -58 19 -8 37 -19 41 -25 10 -16 -26
-24 -47 -11 -27 16 -38 3 -14 -15 27 -19 42 -18 66 6 25 25 17 47 -21 55 -34
8 -46 22 -30 38 9 9 16 8 31 -1 27 -16 35 -15 20 3 -13 15 -61 21 -73 8z"/>
</g>
</svg>
